<?xml version="1.0" encoding="UTF-8"?>
<svg width="162px" height="61px" viewBox="0 0 162 61" version="1.1" xmlns="http://www.w3.org/2000/svg" xmlns:xlink="http://www.w3.org/1999/xlink">
    <!-- Generator: Sketch 51.3 (57544) - http://www.bohemiancoding.com/sketch -->
    <title>Artboard</title>
    <desc>Created with Sketch.</desc>
    <defs></defs>
    <g id="Artboard" stroke="none" stroke-width="1" fill="none" fill-rule="evenodd">
        <g id="twitter" transform="translate(1.000000, 1.000000)" fill-rule="nonzero">
            <rect id="Rectangle-path" stroke="#E2E6E9" fill="#FFFFFF" x="0" y="0" width="160" height="59" rx="5"></rect>
            <path d="M38.001,24.632 C37.376,24.911 36.703,25.097 36,25.18 C36.72,24.749 37.271,24.065 37.534,23.251 C36.861,23.649 36.113,23.941 35.32,24.098 C34.683,23.42 33.777,23 32.774,23 C30.848,23 29.289,24.56 29.289,26.485 C29.289,26.757 29.319,27.022 29.378,27.278 C26.48,27.131 23.911,25.744 22.191,23.633 C21.893,24.147 21.719,24.748 21.719,25.386 C21.719,26.595 22.333,27.663 23.269,28.287 C22.698,28.27 22.16,28.111 21.688,27.853 L21.688,27.897 C21.688,29.587 22.889,30.998 24.486,31.316 C24.194,31.396 23.885,31.439 23.566,31.439 C23.341,31.439 23.124,31.416 22.908,31.376 C23.353,32.76 24.641,33.769 26.165,33.799 C24.97,34.735 23.469,35.293 21.833,35.293 C21.55,35.293 21.275,35.276 21,35.243 C22.547,36.235 24.379,36.81 26.347,36.81 C32.76,36.81 36.269,31.496 36.269,26.888 L36.259,26.437 C36.94,25.949 37.53,25.334 37.998,24.634 L37.999,24.633 L38.001,24.632 Z" id="Shape" fill="#57AAF4"></path>
        </g>
        <text id="Поширити-у-Twitter" fill="#4A4A4A" font-family="Roboto-Regular, Roboto" font-size="14" font-weight="normal">
            <tspan x="53" y="28">Поширити у </tspan>
            <tspan x="53" y="44">Twitter</tspan>
        </text>
    </g>
</svg>