<?xml version="1.0" encoding="UTF-8"?>
<svg width="162px" height="61px" viewBox="0 0 162 61" version="1.1" xmlns="http://www.w3.org/2000/svg" xmlns:xlink="http://www.w3.org/1999/xlink">
    <!-- Generator: Sketch 51.3 (57544) - http://www.bohemiancoding.com/sketch -->
    <title>Artboard</title>
    <desc>Created with Sketch.</desc>
    <defs></defs>
    <g id="Artboard" stroke="none" stroke-width="1" fill="none" fill-rule="evenodd">
        <rect id="Rectangle-path" fill-opacity="0.043138587" fill="#57AAF4" fill-rule="nonzero" x="1" y="1" width="160" height="59" rx="5"></rect>
        <path d="M39,25.6544533 C38.3750368,25.9372918 37.7020763,26.1258508 36.9991177,26.2099928 C37.7190753,25.773063 38.2700429,25.0796524 38.5330275,24.2544533 C37.8600671,24.657929 37.1121111,24.9539464 36.3191577,25.1131064 C35.6821952,24.4257784 34.7762485,24 33.7733075,24 C31.8474207,24 30.2885124,25.5814627 30.2885124,27.5329471 C30.2885124,27.8086894 30.3185107,28.0773353 30.3775072,28.3368573 C27.4796777,28.1878349 24.9108288,26.7817524 23.1909299,24.6417089 C22.8929475,25.1627806 22.7189577,25.7720492 22.7189577,26.4188269 C22.7189577,27.6444605 23.3329216,28.7271542 24.2688665,29.3597393 C23.6979001,29.3425054 23.1599318,29.1813179 22.6879595,28.9197683 L22.6879595,28.9643736 C22.6879595,30.6776249 23.8888889,32.1080377 25.485795,32.4304127 C25.1938121,32.5115134 24.8848303,32.555105 24.5658491,32.555105 C24.3408623,32.555105 24.1238751,32.5317886 23.9078878,32.4912382 C24.3528616,33.8942795 25.6407858,34.9171615 27.1646962,34.9475742 C25.9697665,35.8964518 24.4688548,36.4621289 22.832951,36.4621289 C22.5499676,36.4621289 22.2749838,36.444895 22,36.411441 C23.546909,37.4170891 25.3788012,38 27.3466855,38 C33.7593083,38 37.2681019,32.6128892 37.2681019,27.9414917 L37.2581025,27.4842867 C37.9390624,26.9895728 38.5290277,26.3661115 38.9970002,25.6564808 L38.9980001,25.6554671 L39,25.6544533 Z" id="Shape" fill="#57AAF4" fill-rule="nonzero"></path>
        <text id="Поширити" opacity="0.779743304" font-family="Roboto-Regular, Roboto" font-size="14" font-weight="normal" fill="#4A4A4A">
            <tspan x="55" y="36">Поширити</tspan>
        </text>
    </g>
</svg>