<?xml version="1.0" encoding="UTF-8"?>
<svg width="162px" height="61px" viewBox="0 0 162 61" version="1.1" xmlns="http://www.w3.org/2000/svg" xmlns:xlink="http://www.w3.org/1999/xlink">
    <!-- Generator: Sketch 51.3 (57544) - http://www.bohemiancoding.com/sketch -->
    <title>Artboard</title>
    <desc>Created with Sketch.</desc>
    <defs></defs>
    <g id="Artboard" stroke="none" stroke-width="1" fill="none" fill-rule="evenodd">
        <rect id="Rectangle-path" stroke="#F4F4F4" fill="#FFFFFF" fill-rule="nonzero" x="0.5" y="0.5" width="161" height="60" rx="5"></rect>
        <path d="M39.001,25.632 C38.376,25.911 37.703,26.097 37,26.18 C37.72,25.749 38.271,25.065 38.534,24.251 C37.861,24.649 37.113,24.941 36.32,25.098 C35.683,24.42 34.777,24 33.774,24 C31.848,24 30.289,25.56 30.289,27.485 C30.289,27.757 30.319,28.022 30.378,28.278 C27.48,28.131 24.911,26.744 23.191,24.633 C22.893,25.147 22.719,25.748 22.719,26.386 C22.719,27.595 23.333,28.663 24.269,29.287 C23.698,29.27 23.16,29.111 22.688,28.853 L22.688,28.897 C22.688,30.587 23.889,31.998 25.486,32.316 C25.194,32.396 24.885,32.439 24.566,32.439 C24.341,32.439 24.124,32.416 23.908,32.376 C24.353,33.76 25.641,34.769 27.165,34.799 C25.97,35.735 24.469,36.293 22.833,36.293 C22.55,36.293 22.275,36.276 22,36.243 C23.547,37.235 25.379,37.81 27.347,37.81 C33.76,37.81 37.269,32.496 37.269,27.888 L37.259,27.437 C37.94,26.949 38.53,26.334 38.998,25.634 L38.999,25.633 L39.001,25.632 Z" id="Shape" fill="#57AAF4" fill-rule="nonzero"></path>
        <text id="Поширити" opacity="0.842745536" font-family="Roboto-Medium, Roboto" font-size="14" font-weight="400" fill="#4A4A4A">
            <tspan x="55" y="36">Поширити</tspan>
        </text>
    </g>
</svg>