<?xml version="1.0" encoding="UTF-8"?>
<svg width="162px" height="61px" viewBox="0 0 162 61" version="1.1" xmlns="http://www.w3.org/2000/svg" xmlns:xlink="http://www.w3.org/1999/xlink">
    <!-- Generator: Sketch 51.3 (57544) - http://www.bohemiancoding.com/sketch -->
    <title>Artboard Copy</title>
    <desc>Created with Sketch.</desc>
    <defs></defs>
    <g id="Artboard-Copy" stroke="none" stroke-width="1" fill="none" fill-rule="evenodd">
        <g id="twitter" transform="translate(1.000000, 1.000000)">
            <rect id="Rectangle-path" stroke="#E2E6E9" fill="#FAFAFA" fill-rule="nonzero" x="0" y="0" width="160" height="59" rx="5"></rect>
            <text id="TWITTER" fill="#4A4A4A" font-family="Roboto-Regular, Roboto" font-size="14" font-weight="normal">
                <tspan x="53" y="35">TWITTER</tspan>
            </text>
            <path d="M35.001,24.632 C34.376,24.911 33.703,25.097 33,25.18 C33.72,24.749 34.271,24.065 34.534,23.251 C33.861,23.649 33.113,23.941 32.32,24.098 C31.683,23.42 30.777,23 29.774,23 C27.848,23 26.289,24.56 26.289,26.485 C26.289,26.757 26.319,27.022 26.378,27.278 C23.48,27.131 20.911,25.744 19.191,23.633 C18.893,24.147 18.719,24.748 18.719,25.386 C18.719,26.595 19.333,27.663 20.269,28.287 C19.698,28.27 19.16,28.111 18.688,27.853 L18.688,27.897 C18.688,29.587 19.889,30.998 21.486,31.316 C21.194,31.396 20.885,31.439 20.566,31.439 C20.341,31.439 20.124,31.416 19.908,31.376 C20.353,32.76 21.641,33.769 23.165,33.799 C21.97,34.735 20.469,35.293 18.833,35.293 C18.55,35.293 18.275,35.276 18,35.243 C19.547,36.235 21.379,36.81 23.347,36.81 C29.76,36.81 33.269,31.496 33.269,26.888 L33.259,26.437 C33.94,25.949 34.53,25.334 34.998,24.634 L34.999,24.633 L35.001,24.632 Z" id="Shape" fill="#05AAF4" fill-rule="nonzero"></path>
        </g>
    </g>
</svg>